# xmcd
#
# Track frame offsets: 
#        150
#        14512
#        32247
#        51872
#        69607
#        96332
#        126997
#        147762
#        161085
#        187767
#
# Disc length: 2652 seconds
#
# Revision: 0
# Processed by: cddbd v1.4PL0 Copyright (c) Steve Scherf et al.
# Submitted via: ExactAudioCopy v0.95a3
#
DISCID=8c0a5a0a
DTITLE=Freddie Everett - From The Silent Edge
DYEAR=1994
DGENRE=Blues
TTITLE0=All That I need
TTITLE1=Cruisin'
TTITLE2=Change Of Heart
TTITLE3=Snakes In The Garden
TTITLE4=Intro The Night
TTITLE5=Where Are You Now
TTITLE6=True Revenge
TTITLE7=Someday
TTITLE8=A Matter Of Time
TTITLE9=Rockin'
EXTD=
EXTT0=
EXTT1=
EXTT2=
EXTT3=
EXTT4=
EXTT5=
EXTT6=
EXTT7=
EXTT8=
EXTT9=
PLAYORDER=
